<?xml version="1.0" encoding="UTF-8"?>
<svg version="1.1" xmlns="http://www.w3.org/2000/svg" width="368" height="298">
<path d="M0 0 C2.57285724 2.172635 4.48996919 3.97993838 6 7 C5.94921875 9.0234375 5.94921875 9.0234375 5.6875 11.375 C5.60886719 12.14585938 5.53023437 12.91671875 5.44921875 13.7109375 C4.98084469 16.09760878 4.18250119 17.88597746 3 20 C6.29075996 19.62095792 6.29075996 19.62095792 9 18 C10.66617115 17.95936168 12.33388095 17.957279 14 18 C14 20.97 14 23.94 14 27 C15.32 27.33 16.64 27.66 18 28 C18 32 18 32 16.57421875 33.52734375 C15.95160156 33.99269531 15.32898438 34.45804688 14.6875 34.9375 C11.58457474 37.2728253 9.87364796 39.59284325 8 43 C8.99 43.556875 9.98 44.11375 11 44.6875 C24.92506518 52.66635767 37.38305078 63.94073626 44 79 C45.27875 78.938125 46.5575 78.87625 47.875 78.8125 C54.41233915 78.8331551 60.57514877 79.92155609 65.625 84.25 C67.33974792 87.67949584 67.2968331 90.21537798 67 94 C67.99 94 68.98 94 70 94 C69.36463252 97.68513138 69.36463252 97.68513138 67.62792969 99.18481445 C65.25852464 101.82676504 64.37440266 104.9213305 63.265625 108.23046875 C63.02334167 108.93972 62.78105835 109.64897125 62.53143311 110.37971497 C62.02261187 111.88022281 61.51858818 113.38236489 61.01904297 114.88598633 C60.25639266 117.16836871 59.46708077 119.44030798 58.67578125 121.71289062 C58.18323072 123.17652403 57.69229321 124.64070145 57.203125 126.10546875 C56.96676331 126.77660202 56.73040161 127.44773529 56.48687744 128.13920593 C54.831489 133.25105084 54.87121898 136.84314812 56 142 C59.16321148 145.01258236 61.17432192 145.89679024 65.5 146.4375 C70.35478754 145.83065156 73.59648162 144.64550431 76.8125 140.875 C78.20748042 137.49767898 78.49324797 134.51752193 78.69140625 130.890625 C78.79324219 130.26671875 78.89507812 129.6428125 79 129 C79.66 128.67 80.32 128.34 81 128 C81.92401272 124.86509046 82.68486584 121.73118415 83.41210938 118.546875 C84.98624744 112.09980755 84.98624744 112.09980755 88 110 C94.03774479 107.9874184 99.48485497 108.63424879 105.234375 111.1015625 C107.9157271 112.46596733 109.37220184 113.42265292 111 116 C111.31460856 119.03072915 111.23340521 121.96573224 111 125 C111.99 125 112.98 125 114 125 C112.87548273 127.9719385 111.77706209 130.33440687 110 133 C109.35828669 135.74998934 108.80171963 138.46645205 108.30078125 141.2421875 C107.978717 142.95298483 107.65652759 144.66375861 107.33422852 146.37451172 C107.08420578 147.72219635 107.08420578 147.72219635 106.82913208 149.09710693 C99.08152539 190.75542384 99.08152539 190.75542384 94 206 C94.99 206 95.98 206 97 206 C96.67 207.32 96.34 208.64 96 210 C94.68 210.33 93.36 210.66 92 211 C91.62875 212.918125 91.62875 212.918125 91.25 214.875 C89.67446133 221.89835196 87.85497494 229.38141593 82 234 C79.16015625 234.65234375 79.16015625 234.65234375 76.0625 234.9375 C70.54520049 235.68200307 68.84430682 236.95854924 65 241 C61.40374769 242.32693045 57.73895306 243.17531289 54 244 C53.24847656 244.21140625 52.49695313 244.4228125 51.72265625 244.640625 C51.15417969 244.75921875 50.58570313 244.8778125 50 245 C49.67 244.67 49.34 244.34 49 244 C47.42067669 243.81574561 45.83587444 243.67745244 44.25 243.5625 C40.49292106 243.22877666 37.41498302 242.70749151 34 241 C34 241.66 34 242.32 34 243 C29.20850869 240.78854247 24.95891216 238.43836824 22 234 C21.8046875 232.02734375 21.8046875 232.02734375 21.875 229.9375 C21.93781297 227.95889157 22 225.97960521 22 224 C21.34 223.67 20.68 223.34 20 223 C20.33 222.34 20.66 221.68 21 221 C21.99 221 22.98 221 24 221 C24.33 218.03 24.66 215.06 25 212 C24.34 212 23.68 212 23 212 C23 211.34 23 210.68 23 210 C24.32 210 25.64 210 27 210 C27.28875 209.360625 27.5775 208.72125 27.875 208.0625 C29 206 29 206 31 205 C31 205.99 31 206.98 31 208 C31.99 207.01 32.98 206.02 34 205 C33.67 204.67 33.34 204.34 33 204 C33.78375 203.113125 34.5675 202.22625 35.375 201.3125 C37.13324245 199.22920432 38.06240677 197.83847659 39.0625 195.25 C40 193 40 193 41.9375 191.75 C43.6154811 191.13982506 45.30614622 190.56461793 47 190 C45.62594577 192.95950142 43.98223068 195.41495396 42 198 C42.72445312 198.03738281 43.44890625 198.07476562 44.1953125 198.11328125 C45.64550781 198.21189453 45.64550781 198.21189453 47.125 198.3125 C48.07632813 198.37050781 49.02765625 198.42851562 50.0078125 198.48828125 C53 199 53 199 59 202 C60.65 197.05 62.3 192.1 64 187 C62.6490625 187.02320313 61.298125 187.04640625 59.90625 187.0703125 C58.10417224 187.08908414 56.30208844 187.10728284 54.5 187.125 C53.613125 187.14175781 52.72625 187.15851563 51.8125 187.17578125 C46.17676212 187.2172205 41.40699768 186.60441286 36 185 C35.87882813 185.72703125 35.75765625 186.4540625 35.6328125 187.203125 C33.72380158 195.64048191 28.43911093 202.48309289 23 209 C22.54367188 209.5671875 22.08734375 210.134375 21.6171875 210.71875 C19.59671236 213.2093986 17.53576174 215.43328904 15.1875 217.625 C12.5483495 219.95221376 12.5483495 219.95221376 13 224 C12.00226563 223.92265625 11.00453125 223.8453125 9.9765625 223.765625 C5.21716065 224.04613984 2.45769022 225.46775705 -1.625 227.75 C-23.58610776 239.31730103 -48.35535913 240.94504525 -72.0625 233.8125 C-85.50968467 229.52356264 -97.32799866 222.29600142 -107 212 C-107.99 214.64 -108.98 217.28 -110 220 C-109.34 220.33 -108.68 220.66 -108 221 C-108.8125 222.9375 -108.8125 222.9375 -110 225 C-110.99 225.33 -111.98 225.66 -113 226 C-113.28875 226.763125 -113.5775 227.52625 -113.875 228.3125 C-115.28402044 231.67849328 -117.01647553 232.96247109 -120 235 C-126.98776125 237.32925375 -133.18628566 236.11932056 -139.828125 233.2109375 C-143.85183911 230.96749978 -145.57514945 228.27455166 -147 224 C-147.20359805 221.56530662 -147.36487704 219.12695195 -147.5 216.6875 C-147.7583703 212.05067589 -148.15023189 207.56750361 -149 203 C-148.01 202.67 -147.02 202.34 -146 202 C-145.34 198.37 -144.68 194.74 -144 191 C-145.485 191.0825 -146.97 191.165 -148.5 191.25 C-161.14358314 191.2173714 -173.85591244 187.59645715 -183.2421875 178.9296875 C-190.04833834 171.77450328 -192.79643561 164.81820545 -194.4296875 155.2265625 C-195.21045653 152.17835463 -196.94554699 150.32838008 -199 148 C-199 146.68 -199 145.36 -199 144 C-197.68 144.33 -196.36 144.66 -195 145 C-194.97421875 144.23558594 -194.9484375 143.47117188 -194.921875 142.68359375 C-193.80136698 121.52127176 -184.8747035 98.36627076 -171.25 81.8828125 C-169.67661991 79.51290874 -169.6883586 78.06387179 -169.8125 75.25 C-169.83957031 74.45078125 -169.86664063 73.6515625 -169.89453125 72.828125 C-169.94673828 71.92320313 -169.94673828 71.92320313 -170 71 C-167.66666667 71 -165.33333333 71 -163 71 C-161.81123061 69.87711422 -160.67136091 68.70186215 -159.5625 67.5 C-156.05333393 64.30749901 -153.74471684 63.45897729 -149 63.375 C-141.4749072 63.85006899 -136.32143901 65.49506309 -131 71 C-128.35815459 71.79681318 -128.35815459 71.79681318 -126 72 C-126.61875 73.00675781 -127.2375 74.01351562 -127.875 75.05078125 C-129.93482354 78.66179647 -130.99331683 82.13979477 -132 86.1875 C-135.50386321 99.28408104 -141.50932955 111.64304092 -147 124 C-146.34 124 -145.68 124 -145 124 C-145 124.99 -145 125.98 -145 127 C-145.763125 127.639375 -146.52625 128.27875 -147.3125 128.9375 C-151.43248005 132.75229634 -152.25146959 138.6380781 -153 144 C-152.27794908 147.28584434 -152.27794908 147.28584434 -149 148.6875 C-143.75235666 150.75409769 -137.32168843 150.9935593 -132 149 C-131.02081545 147.3027255 -131.02081545 147.3027255 -130.5625 145.0625 C-130.32402344 144.15757812 -130.08554688 143.25265625 -129.83984375 142.3203125 C-129.42412109 140.67675781 -129.42412109 140.67675781 -129 139 C-128.22119571 136.14225058 -127.42214025 133.29018214 -126.625 130.4375 C-126.19250814 128.88417031 -125.76021949 127.33078402 -125.328125 125.77734375 C-125.10962891 124.99343262 -124.89113281 124.20952148 -124.66601562 123.40185547 C-124.21831599 121.78731403 -123.77436363 120.17172926 -123.33398438 118.55517578 C-122.69139154 116.20042372 -122.03461391 113.85003227 -121.375 111.5 C-121.18115723 110.77611084 -120.98731445 110.05222168 -120.78759766 109.30639648 C-119.34141373 104.22760915 -119.34141373 104.22760915 -116 102 C-115.01 102 -114.02 102 -113 102 C-113 100.68 -113 99.36 -113 98 C-112.401875 98.33 -111.80375 98.66 -111.1875 99 C-108.94613529 100.20787988 -108.94613529 100.20787988 -106 100 C-106.78375 99.154375 -107.5675 98.30875 -108.375 97.4375 C-111.532013 93.59885919 -113.09714109 89.87844402 -112.92578125 84.80078125 C-112.68927781 82.51716604 -112.36692576 80.26606899 -112 78 C-111.835 76.80375 -111.67 75.6075 -111.5 74.375 C-111.335 73.26125 -111.17 72.1475 -111 71 C-110.95875 69.845 -110.9175 68.69 -110.875 67.5 C-109.60438917 62.41755669 -106.9464277 60.30368703 -103 57 C-102.51305664 56.59233398 -102.02611328 56.18466797 -101.52441406 55.76464844 C-81.7230277 39.34955132 -63.29707729 28.50780443 -37 30 C-32.62689409 30.42933719 -28.3098239 31.14717266 -24 32 C-22.9437941 27.45831463 -23.14920353 25.21570307 -25 21 C-27.24380165 8.88347107 -27.24380165 8.88347107 -23.8125 3.6875 C-19.82612905 1.26552048 -15.16137359 1.29915231 -10.609375 1.140625 C-6.70906334 0.93042856 -4.12121832 -0.48484921 0 0 Z M-57.3125 136.6875 C-61.22942284 142.41880126 -63.85759594 148.96771333 -63 156 C-62.34 156.66 -61.68 157.32 -61 158 C-60.01 157.67 -59.02 157.34 -58 157 C-58.22558594 157.556875 -58.45117188 158.11375 -58.68359375 158.6875 C-59.51906198 161.25017976 -60 163.29639678 -60 166 C-57.40195598 170.72519256 -53.00689573 174.97339935 -48 177 C-40.31961043 178.87940169 -34.95302919 177.39020369 -28.3125 173.375 C-22.00910171 166.90123959 -19.60532655 159.52116096 -19.72265625 150.65625 C-20.48568048 143.34841228 -24.55818944 136.82699062 -30 132 C-39.69215349 126.33100456 -50.2308138 127.948769 -57.3125 136.6875 Z M40 201 C39.67 201.66 39.34 202.32 39 203 C39.66386719 202.97679687 40.32773437 202.95359375 41.01171875 202.9296875 C49.78207381 202.75043937 49.78207381 202.75043937 54 205 C51.03 204.505 51.03 204.505 48 204 C48.33 204.99 48.66 205.98 49 207 C51.10584438 207.80563638 51.10584438 207.80563638 53.5625 208.1875 C54.38878906 208.34605469 55.21507812 208.50460938 56.06640625 208.66796875 C56.70449219 208.77753906 57.34257812 208.88710937 58 209 C58.33 207.68 58.66 206.36 59 205 C52.45783241 201.05001202 47.57771707 200.49853343 40 201 Z M38 206 C38 208.31 38 210.62 38 213 C38.99 212.67 39.98 212.34 41 212 C41.73323796 209.98491642 41.73323796 209.98491642 42 208 C43.65 207.67 45.3 207.34 47 207 C47 206.01 47 205.02 47 204 C43.37471432 203.79859524 41.13498292 204.14223235 38 206 Z M34 208 C30.96026722 211.54635491 28.65833849 215.24667436 28.6875 220 C28.790625 220.99 28.89375 221.98 29 223 C29.33 222.34 29.66 221.68 30 221 C30.639375 220.71125 31.27875 220.4225 31.9375 220.125 C34.55853109 218.69534668 35.08160564 217.83171595 36 215 C36.0777346 212.66796188 36.08967728 210.33160941 36 208 C35.34 208 34.68 208 34 208 Z M43 210 C43 210.33 43 210.66 43 211 C47.29 211.66 51.58 212.32 56 213 C55.67 212.01 55.34 211.02 55 210 C50.90946594 208.08109958 46.80732972 207.14450271 43 210 Z M28 210 C29 212 29 212 29 212 Z M27 212 C28 214 28 214 28 214 Z M39 215 C39 215.66 39 216.32 39 217 C43.02388444 218.06514588 45.93593628 217.69175553 50 217 C52.375 217.4375 52.375 217.4375 54 218 C53.65213292 216.02463255 53.65213292 216.02463255 53 214 C48.65065264 211.82532632 43.01189446 212.3254037 39 215 Z M26 215 C26 216.98 26 218.96 26 221 C26.33 221 26.66 221 27 221 C27 219.02 27 217.04 27 215 C26.67 215 26.34 215 26 215 Z M40 218 C40.66 218.66 41.32 219.32 42 220 C42 219.34 42 218.68 42 218 C41.34 218 40.68 218 40 218 Z M46 218 C43.66545339 219.83358335 43.66545339 219.83358335 42 222 C43.98 221.67 45.96 221.34 48 221 C48 221.66 48 222.32 48 223 C47.01 223.33 46.02 223.66 45 224 C46.32 224 47.64 224 49 224 C49.66 223.34 50.32 222.68 51 222 C51 221.01 51 220.02 51 219 C48.70705512 218.14025199 48.70705512 218.14025199 46 218 Z M35 220 C35.33 221.98 35.66 223.96 36 226 C36.33 226 36.66 226 37 226 C37.33 223.69 37.66 221.38 38 219 C36.7763932 218.9254644 36.7763932 218.9254644 35 220 Z M33 222 C33 225 33 225 33 225 Z M39 222 C38.20046862 225.28696233 37.90341064 226.71023192 39 230 C40.32 229.67 41.64 229.34 43 229 C42.72965366 226.56282742 42.72965366 226.56282742 42 224 C41.01 223.34 40.02 222.68 39 222 Z M56 222 C56 223.98 56 225.96 56 228 C56.66 227.67 57.32 227.34 58 227 C57.67 225.35 57.34 223.7 57 222 C56.67 222 56.34 222 56 222 Z M26 223 C27 227 27 227 27 227 Z M51 224 C50.01 225.485 50.01 225.485 49 227 C51.475 227.495 51.475 227.495 54 228 C54 226.68 54 225.36 54 224 C53.01 224 52.02 224 51 224 Z M30 225 C31.12451727 227.9719385 32.22293791 230.33440687 34 233 C34.66 233 35.32 233 36 233 C36 233.66 36 234.32 36 235 C33.69 233.35 31.38 231.7 29 230 C30.15048204 234.60192814 31.04197415 235.57121141 35 238 C37.75124253 237.86850174 37.75124253 237.86850174 40 237 C40 237.66 40 238.32 40 239 C39.01 239.495 39.01 239.495 38 240 C41.47325181 241.1577506 44.36067448 241.06866652 48 241 C47.34 240.67 46.68 240.34 46 240 C46 239.34 46 238.68 46 238 C44.02053408 236.63636792 42.0180755 235.30581356 40 234 C39 233 38 232 37 231 C36.34 231 35.68 231 35 231 C35 229.35 35 227.7 35 226 C33.35 225.67 31.7 225.34 30 225 Z M24 228 C23.79913557 231.71599191 23.8480563 232.77208445 26 236 C26.66 235.67 27.32 235.34 28 235 C27.01 232.69 26.02 230.38 25 228 C24.67 228 24.34 228 24 228 Z M47 228 C47.33 229.32 47.66 230.64 48 232 C49.32 231.67 50.64 231.34 52 231 C52 230.34 52 229.68 52 229 C50.35 228.67 48.7 228.34 47 228 Z M51 234 C53.80045046 234.85650653 53.80045046 234.85650653 57 235 C59.39795381 233.18712805 59.39795381 233.18712805 61 231 C59.95857126 229.75655686 59.95857126 229.75655686 57.6875 229.6875 C54.23292134 230.08919519 53.19459651 231.39899673 51 234 Z M41 231 C42.05041579 233.86477034 42.70124563 234.83913226 45.4375 236.3125 C48.08954827 237.27640461 48.08954827 237.27640461 51 236 C46.36960931 232.66050716 46.36960931 232.66050716 41 231 Z M63 234 C62.67 234.99 62.34 235.98 62 237 C63.65 236.67 65.3 236.34 67 236 C66.67 235.34 66.34 234.68 66 234 C65.01 234 64.02 234 63 234 Z M52.875 238 C52.15054688 238.185625 51.42609375 238.37125 50.6796875 238.5625 C50.12539063 238.706875 49.57109375 238.85125 49 239 C51.68854587 241.26093748 51.68854587 241.26093748 54.04296875 240.7578125 C54.75066406 240.54898438 55.45835937 240.34015625 56.1875 240.125 C58.0746875 239.568125 58.0746875 239.568125 60 239 C59.67 238.34 59.34 237.68 59 237 C56.78970467 237 55.01332407 237.44817443 52.875 238 Z " fill="#58A55E" transform="translate(216,25)"/>
<path d="M0 0 C2.57285724 2.172635 4.48996919 3.97993838 6 7 C5.94921875 9.0234375 5.94921875 9.0234375 5.6875 11.375 C5.60886719 12.14585938 5.53023438 12.91671875 5.44921875 13.7109375 C4.98084469 16.09760878 4.18250119 17.88597746 3 20 C6.29075996 19.62095792 6.29075996 19.62095792 9 18 C10.66617115 17.95936168 12.33388095 17.957279 14 18 C14 20.97 14 23.94 14 27 C15.32 27.33 16.64 27.66 18 28 C18 32 18 32 16.57421875 33.52734375 C15.95160156 33.99269531 15.32898438 34.45804688 14.6875 34.9375 C11.58457474 37.2728253 9.87364796 39.59284325 8 43 C8.99 43.556875 9.98 44.11375 11 44.6875 C18.58554381 49.03390511 25.40149683 53.15613841 31 60 C31.41169434 60.49145508 31.82338867 60.98291016 32.24755859 61.48925781 C38.41807878 68.95778387 43.19920603 76.75930131 47.25 85.5625 C47.64501709 86.4071582 48.04003418 87.25181641 48.44702148 88.12207031 C50.46116043 92.72923485 51.76457175 96.02779569 50 101 C49.02276425 102.02225745 48.02152499 103.02199863 47 104 C45.91806183 106.78267788 45.91806183 106.78267788 45.0625 109.875 C43.2083165 115.67544575 41.49916816 119.18810309 36.5 122.8125 C30.14149793 124.96984892 22.98769516 125.27367868 16.75 122.5 C11.16366844 119.23935877 6.56308172 114.34462258 3 109 C1.04614933 108.21011855 1.04614933 108.21011855 -1.125 107.8125 C-2.40375 107.544375 -3.6825 107.27625 -5 107 C-5.04125 108.258125 -5.0825 109.51625 -5.125 110.8125 C-5.40234375 113.01953125 -5.40234375 113.01953125 -6 115 C-9.99441173 117.97258547 -13.14119784 118.21125227 -18 118 C-19.34061543 118.30271961 -20.6761791 118.63069374 -22 119 C-22.639375 117.88625 -23.27875 116.7725 -23.9375 115.625 C-26.19123712 112.40906566 -27.77534058 111.46592361 -31.625 110.75 C-32.38039063 110.66234375 -33.13578125 110.5746875 -33.9140625 110.484375 C-36 110 -36 110 -37.44921875 108.40625 C-38.9502882 106.7132477 -38.9502882 106.7132477 -41.41796875 107.109375 C-42.33191406 107.32078125 -43.24585938 107.5321875 -44.1875 107.75 C-62.79579592 111.90292441 -85.26367776 113.43262148 -102 103.125 C-107.92677145 98.78595081 -111.72973858 94.49454239 -113 87 C-112.89724357 83.95516476 -112.48654322 81.00480538 -112 78 C-111.835 76.80375 -111.67 75.6075 -111.5 74.375 C-111.2525 72.704375 -111.2525 72.704375 -111 71 C-110.95875 69.845 -110.9175 68.69 -110.875 67.5 C-109.60438917 62.41755669 -106.9464277 60.30368703 -103 57 C-102.51305664 56.59233398 -102.02611328 56.18466797 -101.52441406 55.76464844 C-81.7230277 39.34955132 -63.29707729 28.50780443 -37 30 C-32.62689409 30.42933719 -28.3098239 31.14717266 -24 32 C-22.9437941 27.45831463 -23.14920353 25.21570307 -25 21 C-27.24380165 8.88347107 -27.24380165 8.88347107 -23.8125 3.6875 C-19.82612905 1.26552048 -15.16137359 1.29915231 -10.609375 1.140625 C-6.70906334 0.93042856 -4.12121832 -0.48484921 0 0 Z " fill="#FEA18E" transform="translate(216,25)"/>
<path d="M0 0 C5.12768957 1.18203234 8.35802429 3.23243892 12 7 C14.64184541 7.79681318 14.64184541 7.79681318 17 8 C16.38125 9.00675781 15.7625 10.01351562 15.125 11.05078125 C13.06517646 14.66179647 12.00668317 18.13979477 11 22.1875 C7.49613679 35.28408104 1.49067045 47.64304092 -4 60 C-3.34 60 -2.68 60 -2 60 C-2 60.99 -2 61.98 -2 63 C-2.763125 63.639375 -3.52625 64.27875 -4.3125 64.9375 C-8.43248005 68.75229634 -9.25146959 74.6380781 -10 80 C-9.27794908 83.28584434 -9.27794908 83.28584434 -6 84.6875 C-0.75235666 86.75409769 5.67831157 86.9935593 11 85 C11.97918455 83.3027255 11.97918455 83.3027255 12.4375 81.0625 C12.67597656 80.15757812 12.91445312 79.25265625 13.16015625 78.3203125 C13.57587891 76.67675781 13.57587891 76.67675781 14 75 C14.77880429 72.14225058 15.57785975 69.29018214 16.375 66.4375 C16.80749186 64.88417031 17.23978051 63.33078402 17.671875 61.77734375 C17.89037109 60.99343262 18.10886719 60.20952148 18.33398438 59.40185547 C18.78168401 57.78731403 19.22563637 56.17172926 19.66601562 54.55517578 C20.30860846 52.20042372 20.96538609 49.85003227 21.625 47.5 C21.81884277 46.77611084 22.01268555 46.05222168 22.21240234 45.30639648 C23.65858627 40.22760915 23.65858627 40.22760915 27 38 C27.99 38 28.98 38 30 38 C30 36.68 30 35.36 30 34 C37.95800678 36.292985 44.81917721 39.94899487 52 44 C51.27425781 44.72316406 50.54851562 45.44632813 49.80078125 46.19140625 C33.07903427 62.95979688 23.73759592 79.7977088 23.61279297 103.92211914 C23.9164461 120.67933686 32.39257461 135.37259626 44 147 C44.61488281 147.62648437 45.22976562 148.25296875 45.86328125 148.8984375 C66.44929876 168.38241981 93.15644712 170.49483437 120 171 C120 171.33 120 171.66 120 172 C94.31782509 176.31244916 69.10541262 173.2857847 47.37109375 158.171875 C43.26993224 155.06391076 39.52180028 151.7490132 36 148 C35.01 150.64 34.02 153.28 33 156 C33.66 156.33 34.32 156.66 35 157 C34.1875 158.9375 34.1875 158.9375 33 161 C32.01 161.33 31.02 161.66 30 162 C29.71125 162.763125 29.4225 163.52625 29.125 164.3125 C27.71597956 167.67849328 25.98352447 168.96247109 23 171 C16.01223875 173.32925375 9.81371434 172.11932056 3.171875 169.2109375 C-0.85183911 166.96749978 -2.57514945 164.27455166 -4 160 C-4.20359805 157.56530662 -4.36487704 155.12695195 -4.5 152.6875 C-4.7583703 148.05067589 -5.15023189 143.56750361 -6 139 C-5.01 138.67 -4.02 138.34 -3 138 C-2.34 134.37 -1.68 130.74 -1 127 C-2.485 127.0825 -3.97 127.165 -5.5 127.25 C-18.14358314 127.2173714 -30.85591244 123.59645715 -40.2421875 114.9296875 C-47.04833834 107.77450328 -49.79643561 100.81820545 -51.4296875 91.2265625 C-52.21045653 88.17835463 -53.94554699 86.32838008 -56 84 C-56 82.68 -56 81.36 -56 80 C-54.68 80.33 -53.36 80.66 -52 81 C-51.97421875 80.23558594 -51.9484375 79.47117187 -51.921875 78.68359375 C-50.80136698 57.52127176 -41.8747035 34.36627076 -28.25 17.8828125 C-26.67661991 15.51290874 -26.6883586 14.06387179 -26.8125 11.25 C-26.83957031 10.45078125 -26.86664063 9.6515625 -26.89453125 8.828125 C-26.94673828 7.92320313 -26.94673828 7.92320313 -27 7 C-24.66666667 7 -22.33333333 7 -20 7 C-18.81123061 5.87711422 -17.67136091 4.70186215 -16.5625 3.5 C-11.4323749 -1.16718563 -6.62939306 -0.9801522 0 0 Z " fill="#57A55E" transform="translate(73,89)"/>
<path d="M0 0 C2.68476649 1.76801696 4.12583404 2.81416807 5.5625 5.6875 C5.75 9.4375 5.75 9.4375 5.5625 12.6875 C6.5525 12.6875 7.5425 12.6875 8.5625 12.6875 C7.92713252 16.37263138 7.92713252 16.37263138 6.19042969 17.87231445 C3.82102464 20.51426504 2.93690266 23.6088305 1.828125 26.91796875 C1.58584167 27.62722 1.34355835 28.33647125 1.09393311 29.06721497 C0.58511187 30.56772281 0.08108818 32.06986489 -0.41845703 33.57348633 C-1.18110734 35.85586871 -1.97041923 38.12780798 -2.76171875 40.40039062 C-3.25426928 41.86402403 -3.74520679 43.32820145 -4.234375 44.79296875 C-4.47073669 45.46410202 -4.70709839 46.13523529 -4.95062256 46.82670593 C-6.606011 51.93855084 -6.56628102 55.53064812 -5.4375 60.6875 C-2.27428852 63.70008236 -0.26317808 64.58429024 4.0625 65.125 C8.91728754 64.51815156 12.15898162 63.33300431 15.375 59.5625 C16.76998042 56.18517898 17.05574797 53.20502193 17.25390625 49.578125 C17.40666016 48.64226562 17.40666016 48.64226562 17.5625 47.6875 C18.2225 47.3575 18.8825 47.0275 19.5625 46.6875 C20.48651272 43.55259046 21.24736584 40.41868415 21.97460938 37.234375 C23.54874744 30.78730755 23.54874744 30.78730755 26.5625 28.6875 C32.60024479 26.6749184 38.04735497 27.32174879 43.796875 29.7890625 C46.4782271 31.15346733 47.93470184 32.11015292 49.5625 34.6875 C49.87710856 37.71822915 49.79590521 40.65323224 49.5625 43.6875 C50.5525 43.6875 51.5425 43.6875 52.5625 43.6875 C51.43798273 46.6594385 50.33956209 49.02190687 48.5625 51.6875 C47.92078669 54.43748934 47.36421963 57.15395205 46.86328125 59.9296875 C46.541217 61.64048483 46.21902759 63.35125861 45.89672852 65.06201172 C45.64670578 66.40969635 45.64670578 66.40969635 45.39163208 67.78460693 C37.64402539 109.44292384 37.64402539 109.44292384 32.5625 124.6875 C33.5525 124.6875 34.5425 124.6875 35.5625 124.6875 C35.2325 126.0075 34.9025 127.3275 34.5625 128.6875 C33.2425 129.0175 31.9225 129.3475 30.5625 129.6875 C30.19125 131.605625 30.19125 131.605625 29.8125 133.5625 C28.23696133 140.58585196 26.41747494 148.06891593 20.5625 152.6875 C17.72265625 153.33984375 17.72265625 153.33984375 14.625 153.625 C9.10770049 154.36950307 7.40680682 155.64604924 3.5625 159.6875 C-0.03375231 161.01443045 -3.69854694 161.86281289 -7.4375 162.6875 C-8.18902344 162.89890625 -8.94054687 163.1103125 -9.71484375 163.328125 C-10.28332031 163.44671875 -10.85179687 163.5653125 -11.4375 163.6875 C-11.7675 163.3575 -12.0975 163.0275 -12.4375 162.6875 C-14.01682331 162.50324561 -15.60162556 162.36495244 -17.1875 162.25 C-20.94457894 161.91627666 -24.02251698 161.39499151 -27.4375 159.6875 C-27.4375 160.3475 -27.4375 161.0075 -27.4375 161.6875 C-32.22899131 159.47604247 -36.47858784 157.12586824 -39.4375 152.6875 C-39.6328125 150.71484375 -39.6328125 150.71484375 -39.5625 148.625 C-39.49968703 146.64639157 -39.4375 144.66710521 -39.4375 142.6875 C-40.0975 142.3575 -40.7575 142.0275 -41.4375 141.6875 C-40.9425 140.6975 -40.9425 140.6975 -40.4375 139.6875 C-39.4475 139.6875 -38.4575 139.6875 -37.4375 139.6875 C-37.1075 136.7175 -36.7775 133.7475 -36.4375 130.6875 C-37.0975 130.6875 -37.7575 130.6875 -38.4375 130.6875 C-38.4375 130.0275 -38.4375 129.3675 -38.4375 128.6875 C-37.1175 128.6875 -35.7975 128.6875 -34.4375 128.6875 C-34.004375 127.7284375 -34.004375 127.7284375 -33.5625 126.75 C-32.4375 124.6875 -32.4375 124.6875 -30.4375 123.6875 C-30.4375 124.6775 -30.4375 125.6675 -30.4375 126.6875 C-29.4475 125.6975 -28.4575 124.7075 -27.4375 123.6875 C-27.7675 123.3575 -28.0975 123.0275 -28.4375 122.6875 C-27.65375 121.800625 -26.87 120.91375 -26.0625 120 C-24.30425755 117.91670432 -23.37509323 116.52597659 -22.375 113.9375 C-21.4375 111.6875 -21.4375 111.6875 -19.5 110.4375 C-17.8220189 109.82732506 -16.13135378 109.25211793 -14.4375 108.6875 C-15.81155423 111.64700142 -17.45526932 114.10245396 -19.4375 116.6875 C-18.71304687 116.72488281 -17.98859375 116.76226562 -17.2421875 116.80078125 C-16.27539062 116.86652344 -15.30859375 116.93226563 -14.3125 117 C-13.36117188 117.05800781 -12.40984375 117.11601562 -11.4296875 117.17578125 C-8.4375 117.6875 -8.4375 117.6875 -2.4375 120.6875 C-0.7875 115.7375 0.8625 110.7875 2.5625 105.6875 C1.19996094 105.71070313 -0.16257812 105.73390625 -1.56640625 105.7578125 C-3.37759865 105.77658133 -5.18879703 105.79478033 -7 105.8125 C-7.89525391 105.82925781 -8.79050781 105.84601563 -9.71289062 105.86328125 C-15.03839905 105.90229596 -19.40120689 105.44225782 -24.4375 103.6875 C-24.3653125 103.03007812 -24.293125 102.37265625 -24.21875 101.6953125 C-22.23093611 81.32022014 -22.54718955 62.17811908 -34.4375 44.6875 C-35.4275 44.0275 -36.4175 43.3675 -37.4375 42.6875 C-36.62925781 42.60113281 -35.82101563 42.51476562 -34.98828125 42.42578125 C-28.24909939 41.59554964 -28.24909939 41.59554964 -22.375 38.4375 C-19.06261235 33.73604656 -17.11244566 28.8685971 -15.203125 23.49609375 C-14.4375 21.6875 -14.4375 21.6875 -12.6875 19.625 C-11.12468403 17.20263524 -11.25061024 15.55280089 -11.77734375 12.76171875 C-12.89615953 9.24638632 -14.62877706 6.06170985 -16.37890625 2.82421875 C-17.4375 0.6875 -17.4375 0.6875 -17.4375 -1.3125 C-11.58842703 -3.09148072 -5.63002883 -2.14964737 0 0 Z M-21.4375 119.6875 C-21.7675 120.3475 -22.0975 121.0075 -22.4375 121.6875 C-21.77363281 121.66429687 -21.10976563 121.64109375 -20.42578125 121.6171875 C-11.65542619 121.43793937 -11.65542619 121.43793937 -7.4375 123.6875 C-10.4075 123.1925 -10.4075 123.1925 -13.4375 122.6875 C-13.1075 123.6775 -12.7775 124.6675 -12.4375 125.6875 C-10.33165562 126.49313638 -10.33165562 126.49313638 -7.875 126.875 C-7.04871094 127.03355469 -6.22242188 127.19210938 -5.37109375 127.35546875 C-4.73300781 127.46503906 -4.09492188 127.57460937 -3.4375 127.6875 C-3.1075 126.3675 -2.7775 125.0475 -2.4375 123.6875 C-8.97966759 119.73751202 -13.85978293 119.18603343 -21.4375 119.6875 Z M-23.4375 124.6875 C-23.4375 126.9975 -23.4375 129.3075 -23.4375 131.6875 C-22.4475 131.3575 -21.4575 131.0275 -20.4375 130.6875 C-19.70426204 128.67241642 -19.70426204 128.67241642 -19.4375 126.6875 C-17.7875 126.3575 -16.1375 126.0275 -14.4375 125.6875 C-14.4375 124.6975 -14.4375 123.7075 -14.4375 122.6875 C-18.06278568 122.48609524 -20.30251708 122.82973235 -23.4375 124.6875 Z M-27.4375 126.6875 C-30.47723278 130.23385491 -32.77916151 133.93417436 -32.75 138.6875 C-32.646875 139.6775 -32.54375 140.6675 -32.4375 141.6875 C-32.1075 141.0275 -31.7775 140.3675 -31.4375 139.6875 C-30.798125 139.39875 -30.15875 139.11 -29.5 138.8125 C-26.87896891 137.38284668 -26.35589436 136.51921595 -25.4375 133.6875 C-25.3597654 131.35546188 -25.34782272 129.01910941 -25.4375 126.6875 C-26.0975 126.6875 -26.7575 126.6875 -27.4375 126.6875 Z M-18.4375 128.6875 C-18.4375 129.0175 -18.4375 129.3475 -18.4375 129.6875 C-14.1475 130.3475 -9.8575 131.0075 -5.4375 131.6875 C-5.7675 130.6975 -6.0975 129.7075 -6.4375 128.6875 C-10.52803406 126.76859958 -14.63017028 125.83200271 -18.4375 128.6875 Z M-33.4375 128.6875 C-32.4375 130.6875 -32.4375 130.6875 -32.4375 130.6875 Z M-34.4375 130.6875 C-33.4375 132.6875 -33.4375 132.6875 -33.4375 132.6875 Z M-22.4375 133.6875 C-22.4375 134.3475 -22.4375 135.0075 -22.4375 135.6875 C-18.41361556 136.75264588 -15.50156372 136.37925553 -11.4375 135.6875 C-9.0625 136.125 -9.0625 136.125 -7.4375 136.6875 C-7.78536708 134.71213255 -7.78536708 134.71213255 -8.4375 132.6875 C-12.78684736 130.51282632 -18.42560554 131.0129037 -22.4375 133.6875 Z M-35.4375 133.6875 C-35.4375 135.6675 -35.4375 137.6475 -35.4375 139.6875 C-35.1075 139.6875 -34.7775 139.6875 -34.4375 139.6875 C-34.4375 137.7075 -34.4375 135.7275 -34.4375 133.6875 C-34.7675 133.6875 -35.0975 133.6875 -35.4375 133.6875 Z M-21.4375 136.6875 C-20.7775 137.3475 -20.1175 138.0075 -19.4375 138.6875 C-19.4375 138.0275 -19.4375 137.3675 -19.4375 136.6875 C-20.0975 136.6875 -20.7575 136.6875 -21.4375 136.6875 Z M-15.4375 136.6875 C-17.77204661 138.52108335 -17.77204661 138.52108335 -19.4375 140.6875 C-17.4575 140.3575 -15.4775 140.0275 -13.4375 139.6875 C-13.4375 140.3475 -13.4375 141.0075 -13.4375 141.6875 C-14.4275 142.0175 -15.4175 142.3475 -16.4375 142.6875 C-15.1175 142.6875 -13.7975 142.6875 -12.4375 142.6875 C-11.7775 142.0275 -11.1175 141.3675 -10.4375 140.6875 C-10.4375 139.6975 -10.4375 138.7075 -10.4375 137.6875 C-12.73044488 136.82775199 -12.73044488 136.82775199 -15.4375 136.6875 Z M-26.4375 138.6875 C-26.1075 140.6675 -25.7775 142.6475 -25.4375 144.6875 C-25.1075 144.6875 -24.7775 144.6875 -24.4375 144.6875 C-24.1075 142.3775 -23.7775 140.0675 -23.4375 137.6875 C-24.6611068 137.6129644 -24.6611068 137.6129644 -26.4375 138.6875 Z M-28.4375 140.6875 C-28.4375 143.6875 -28.4375 143.6875 -28.4375 143.6875 Z M-22.4375 140.6875 C-23.23703138 143.97446233 -23.53408936 145.39773192 -22.4375 148.6875 C-21.1175 148.3575 -19.7975 148.0275 -18.4375 147.6875 C-18.70784634 145.25032742 -18.70784634 145.25032742 -19.4375 142.6875 C-20.4275 142.0275 -21.4175 141.3675 -22.4375 140.6875 Z M-5.4375 140.6875 C-5.4375 142.6675 -5.4375 144.6475 -5.4375 146.6875 C-4.7775 146.3575 -4.1175 146.0275 -3.4375 145.6875 C-3.7675 144.0375 -4.0975 142.3875 -4.4375 140.6875 C-4.7675 140.6875 -5.0975 140.6875 -5.4375 140.6875 Z M-35.4375 141.6875 C-34.4375 145.6875 -34.4375 145.6875 -34.4375 145.6875 Z M-10.4375 142.6875 C-11.4275 144.1725 -11.4275 144.1725 -12.4375 145.6875 C-9.9625 146.1825 -9.9625 146.1825 -7.4375 146.6875 C-7.4375 145.3675 -7.4375 144.0475 -7.4375 142.6875 C-8.4275 142.6875 -9.4175 142.6875 -10.4375 142.6875 Z M-31.4375 143.6875 C-30.31298273 146.6594385 -29.21456209 149.02190687 -27.4375 151.6875 C-26.7775 151.6875 -26.1175 151.6875 -25.4375 151.6875 C-25.4375 152.3475 -25.4375 153.0075 -25.4375 153.6875 C-27.7475 152.0375 -30.0575 150.3875 -32.4375 148.6875 C-31.28701796 153.28942814 -30.39552585 154.25871141 -26.4375 156.6875 C-23.68625747 156.55600174 -23.68625747 156.55600174 -21.4375 155.6875 C-21.4375 156.3475 -21.4375 157.0075 -21.4375 157.6875 C-22.4275 158.1825 -22.4275 158.1825 -23.4375 158.6875 C-19.96424819 159.8452506 -17.07682552 159.75616652 -13.4375 159.6875 C-14.0975 159.3575 -14.7575 159.0275 -15.4375 158.6875 C-15.4375 158.0275 -15.4375 157.3675 -15.4375 156.6875 C-17.41696592 155.32386792 -19.4194245 153.99331356 -21.4375 152.6875 C-22.4375 151.6875 -23.4375 150.6875 -24.4375 149.6875 C-25.0975 149.6875 -25.7575 149.6875 -26.4375 149.6875 C-26.4375 148.0375 -26.4375 146.3875 -26.4375 144.6875 C-28.0875 144.3575 -29.7375 144.0275 -31.4375 143.6875 Z M-37.4375 146.6875 C-37.63836443 150.40349191 -37.5894437 151.45958445 -35.4375 154.6875 C-34.7775 154.3575 -34.1175 154.0275 -33.4375 153.6875 C-34.4275 151.3775 -35.4175 149.0675 -36.4375 146.6875 C-36.7675 146.6875 -37.0975 146.6875 -37.4375 146.6875 Z M-14.4375 146.6875 C-14.1075 148.0075 -13.7775 149.3275 -13.4375 150.6875 C-12.1175 150.3575 -10.7975 150.0275 -9.4375 149.6875 C-9.4375 149.0275 -9.4375 148.3675 -9.4375 147.6875 C-11.0875 147.3575 -12.7375 147.0275 -14.4375 146.6875 Z M-10.4375 152.6875 C-7.63704954 153.54400653 -7.63704954 153.54400653 -4.4375 153.6875 C-2.03954619 151.87462805 -2.03954619 151.87462805 -0.4375 149.6875 C-1.47892874 148.44405686 -1.47892874 148.44405686 -3.75 148.375 C-7.20457866 148.77669519 -8.24290349 150.08649673 -10.4375 152.6875 Z M-20.4375 149.6875 C-19.38708421 152.55227034 -18.73625437 153.52663226 -16 155 C-13.34795173 155.96390461 -13.34795173 155.96390461 -10.4375 154.6875 C-15.06789069 151.34800716 -15.06789069 151.34800716 -20.4375 149.6875 Z M1.5625 152.6875 C1.2325 153.6775 0.9025 154.6675 0.5625 155.6875 C2.2125 155.3575 3.8625 155.0275 5.5625 154.6875 C5.2325 154.0275 4.9025 153.3675 4.5625 152.6875 C3.5725 152.6875 2.5825 152.6875 1.5625 152.6875 Z M-8.5625 156.6875 C-9.28695312 156.873125 -10.01140625 157.05875 -10.7578125 157.25 C-11.31210937 157.394375 -11.86640625 157.53875 -12.4375 157.6875 C-9.74895413 159.94843748 -9.74895413 159.94843748 -7.39453125 159.4453125 C-6.68683594 159.23648438 -5.97914063 159.02765625 -5.25 158.8125 C-3.3628125 158.255625 -3.3628125 158.255625 -1.4375 157.6875 C-1.7675 157.0275 -2.0975 156.3675 -2.4375 155.6875 C-4.64779533 155.6875 -6.42417593 156.13567443 -8.5625 156.6875 Z " fill="#58A55E" transform="translate(277.4375,106.3125)"/>
<path d="M0 0 C1.875 2.8125 1.875 2.8125 3 6 C4.71401525 7.54629538 6.4913852 8.88749024 8.37890625 10.21484375 C13.22280384 15.54896711 12.91657404 25.21415576 13.8125 32 C15.08478232 41.19995995 16.71533791 49.70497576 20.046875 58.375 C21 61 21 61 21 64 C19.02 63.34 17.04 62.68 15 62 C15.66 59.36 16.32 56.72 17 54 C16.45472656 54.2165625 15.90945312 54.433125 15.34765625 54.65625 C4.50590692 58.65935745 -4.33024211 56.76887621 -14.93334961 52.89331055 C-32.39356726 46.59273665 -50.52568655 44.43113917 -69 44 C-66.50494038 41.50494038 -65.32671112 41.64051624 -61.875 41.375 C-60.96492188 41.30023438 -60.05484375 41.22546875 -59.1171875 41.1484375 C-58.41851562 41.09945312 -57.71984375 41.05046875 -57 41 C-64.84654629 36.10042847 -71.8346044 35.14527284 -81 35 C-81.45375 35.825 -81.9075 36.65 -82.375 37.5 C-82.91125 38.325 -83.4475 39.15 -84 40 C-84.66 40 -85.32 40 -86 40 C-86.84015151 37.31151518 -87.26178353 35.74872707 -87 33 C-78.1319842 17.30296473 -52.70945933 2.41520595 -35.8125 -2.375 C-24.70515172 -4.3591856 -10.41662198 -4.46426656 0 0 Z " fill="#FECD55" transform="translate(192,58)"/>
<path d="M0 0 C7.99185115 0.39572137 14.52502662 1.39257887 21.19140625 6.0546875 C21.68640625 7.0446875 21.68640625 7.0446875 22.19140625 8.0546875 C18.56140625 8.3846875 14.93140625 8.7146875 11.19140625 9.0546875 C12.63193359 9.09335938 12.63193359 9.09335938 14.1015625 9.1328125 C32.47577722 9.81342356 49.85502396 12.99406826 67.0390625 19.56640625 C71.91056081 21.39458774 76.61302869 22.19622127 81.81640625 22.2421875 C82.55117187 22.25636719 83.2859375 22.27054688 84.04296875 22.28515625 C86.47973382 22.02375781 88.03732961 21.1849129 90.19140625 20.0546875 C92.94140625 19.9296875 92.94140625 19.9296875 95.19140625 20.0546875 C95.39227068 23.77067941 95.34334995 24.82677195 93.19140625 28.0546875 C94.24328125 28.2815625 95.29515625 28.5084375 96.37890625 28.7421875 C100.36869285 29.86481976 102.45947099 31.93247578 105.19140625 35.0546875 C105.85140625 35.7146875 106.51140625 36.3746875 107.19140625 37.0546875 C106.81640625 39.6796875 106.81640625 39.6796875 106.19140625 42.0546875 C103.22140625 41.3946875 100.25140625 40.7346875 97.19140625 40.0546875 C97.15015625 41.3128125 97.10890625 42.5709375 97.06640625 43.8671875 C96.7890625 46.07421875 96.7890625 46.07421875 96.19140625 48.0546875 C92.19699452 51.02727297 89.05020841 51.26593977 84.19140625 51.0546875 C82.85079082 51.35740711 81.51522715 51.68538124 80.19140625 52.0546875 C79.55203125 50.9409375 78.91265625 49.8271875 78.25390625 48.6796875 C76.00016913 45.46375316 74.41606567 44.52061111 70.56640625 43.8046875 C69.81101562 43.71703125 69.055625 43.629375 68.27734375 43.5390625 C66.19140625 43.0546875 66.19140625 43.0546875 64.7421875 41.4609375 C63.24111805 39.7679352 63.24111805 39.7679352 60.7734375 40.1640625 C59.85949219 40.37546875 58.94554687 40.586875 58.00390625 40.8046875 C39.39561033 44.95761191 16.92772849 46.48730898 0.19140625 36.1796875 C-5.7353652 31.84063831 -9.53833233 27.54922989 -10.80859375 20.0546875 C-10.72273189 15.06611348 -9.99882797 10.58117156 -7.80859375 6.0546875 C-7.14859375 6.0546875 -6.48859375 6.0546875 -5.80859375 6.0546875 C-5.49921875 5.2503125 -5.18984375 4.4459375 -4.87109375 3.6171875 C-3.39872405 0.06617822 -3.39872405 0.06617822 0 0 Z " fill="#FDA18E" transform="translate(113.80859375,91.9453125)"/>
<path d="M0 0 C7.95800678 2.292985 14.81917721 5.94899487 22 10 C21.27425781 10.72316406 20.54851562 11.44632813 19.80078125 12.19140625 C3.07903427 28.95979688 -6.26240408 45.7977088 -6.38720703 69.92211914 C-6.0835539 86.67933686 2.39257461 101.37259626 14 113 C14.61488281 113.62648438 15.22976562 114.25296875 15.86328125 114.8984375 C36.44929876 134.38241981 63.15644712 136.49483437 90 137 C90 137.33 90 137.66 90 138 C64.03909096 142.35925309 39.71588817 138.99741672 17.546875 124.3828125 C11.26596569 119.79291723 5.83147413 114.08221065 1 108 C1 107.34 1 106.68 1 106 C0.071875 105.71125 -0.85625 105.4225 -1.8125 105.125 C-5 104 -5 104 -8 102 C-8 101.34 -8 100.68 -8 100 C-6.515 99.505 -6.515 99.505 -5 99 C-5.32613281 98.27296875 -5.65226562 97.5459375 -5.98828125 96.796875 C-13.92367426 78.5384486 -16.06287403 60.8553512 -9 42 C-9 41.34 -9 40.68 -9 40 C-9.45890625 40.98742187 -9.9178125 41.97484375 -10.390625 42.9921875 C-11.00977171 44.28676699 -11.62959914 45.58102107 -12.25 46.875 C-12.55035156 47.52597656 -12.85070312 48.17695313 -13.16015625 48.84765625 C-14.43938347 51.48776348 -15.50656926 53.6242494 -17.8671875 55.421875 C-22.94854778 56.79924006 -29.13982155 57.13763195 -34.08203125 55.171875 C-36.3157838 53.71531616 -37.80116554 52.39766891 -39 50 C-38.030625 50.33 -37.06125 50.66 -36.0625 51 C-30.69804151 52.5373753 -24.30104202 52.99177449 -19 51 C-18.02081545 49.3027255 -18.02081545 49.3027255 -17.5625 47.0625 C-17.20478516 45.70511719 -17.20478516 45.70511719 -16.83984375 44.3203125 C-16.56269531 43.22460938 -16.28554687 42.12890625 -16 41 C-15.22119571 38.14225058 -14.42214025 35.29018214 -13.625 32.4375 C-13.19250814 30.88417031 -12.76021949 29.33078402 -12.328125 27.77734375 C-12.10962891 26.99343262 -11.89113281 26.20952148 -11.66601562 25.40185547 C-11.21831599 23.78731403 -10.77436363 22.17172926 -10.33398438 20.55517578 C-9.69139154 18.20042372 -9.03461391 15.85003227 -8.375 13.5 C-8.18115723 12.77611084 -7.98731445 12.05222168 -7.78759766 11.30639648 C-6.34141373 6.22760915 -6.34141373 6.22760915 -3 4 C-2.01 4 -1.02 4 0 4 C0 2.68 0 1.36 0 0 Z " fill="#4C894F" transform="translate(103,123)"/>
<path d="M0 0 C0 3.90838866 -1.50567876 5.11594107 -4 8 C-3.27554687 8.03738281 -2.55109375 8.07476562 -1.8046875 8.11328125 C8.38689009 8.80630853 8.38689009 8.80630853 13 12 C14.15234375 14.10546875 14.15234375 14.10546875 15 16 C14.30132812 15.71125 13.60265625 15.4225 12.8828125 15.125 C11.97273438 14.75375 11.06265625 14.3825 10.125 14 C9.22007812 13.62875 8.31515625 13.2575 7.3828125 12.875 C5.11016142 11.88509774 5.11016142 11.88509774 3 12 C6.465 13.485 6.465 13.485 10 15 C8 16 8 16 4.875 15.0625 C3.451875 14.5365625 3.451875 14.5365625 2 14 C3.29323107 16.58646214 4.25699997 16.63668534 6.9375 17.5625 C9.03793267 18.29822324 11.00802626 19.00401313 13 20 C12.01 25.94 11.02 31.88 10 38 C11.32 38.33 12.64 38.66 14 39 C14 39.33 14 39.66 14 40 C13.030625 40.309375 12.06125 40.61875 11.0625 40.9375 C8.15934208 41.69523342 8.15934208 41.69523342 7 43 C7.99 43.495 7.99 43.495 9 44 C9.495 43.01 9.495 43.01 10 42 C10.33 42.66 10.66 43.32 11 44 C12.98 43.01 14.96 42.02 17 41 C17.33 41.99 17.66 42.98 18 44 C17.34 44.99 16.68 45.98 16 47 C16.94875 46.525625 17.8975 46.05125 18.875 45.5625 C20.58333333 44.70833333 22.29166667 43.85416667 24 43 C23.45169425 46.83814028 21.91114147 48.5096868 19 51 C16.34375 52.01171875 16.34375 52.01171875 13.5 52.6875 C12.09234375 53.03361328 12.09234375 53.03361328 10.65625 53.38671875 C9.7796875 53.58910156 8.903125 53.79148437 8 54 C7.2471875 54.21269531 6.494375 54.42539062 5.71875 54.64453125 C5.1515625 54.76183594 4.584375 54.87914062 4 55 C3.505 54.505 3.505 54.505 3 54 C1.42067669 53.81574561 -0.16412556 53.67745244 -1.75 53.5625 C-5.50707894 53.22877666 -8.58501698 52.70749151 -12 51 C-12 51.66 -12 52.32 -12 53 C-16.79149131 50.78854247 -21.04108784 48.43836824 -24 44 C-24.1953125 42.02734375 -24.1953125 42.02734375 -24.125 39.9375 C-24.06218703 37.95889157 -24 35.97960521 -24 34 C-24.66 33.67 -25.32 33.34 -26 33 C-25.67 32.34 -25.34 31.68 -25 31 C-24.01 31 -23.02 31 -22 31 C-21.505 26.545 -21.505 26.545 -21 22 C-21.66 22 -22.32 22 -23 22 C-23 21.34 -23 20.68 -23 20 C-21.68 20 -20.36 20 -19 20 C-18.71125 19.360625 -18.4225 18.72125 -18.125 18.0625 C-17 16 -17 16 -15 15 C-15 15.99 -15 16.98 -15 18 C-14.01 17.01 -13.02 16.02 -12 15 C-12.33 14.67 -12.66 14.34 -13 14 C-12.21625 13.113125 -11.4325 12.22625 -10.625 11.3125 C-8.86675755 9.22920432 -7.93759323 7.83847659 -6.9375 5.25 C-6 3 -6 3 -4 1.75 C-3.34 1.5025 -2.68 1.255 -2 1 C-1.34 0.67 -0.68 0.34 0 0 Z M-8 16 C-8 18.31 -8 20.62 -8 23 C-7.01 22.67 -6.02 22.34 -5 22 C-4.26676204 19.98491642 -4.26676204 19.98491642 -4 18 C-2.35 17.67 -0.7 17.34 1 17 C1 16.01 1 15.02 1 14 C-2.62528568 13.79859524 -4.86501708 14.14223235 -8 16 Z M-12 18 C-15.03973278 21.54635491 -17.34166151 25.24667436 -17.3125 30 C-17.209375 30.99 -17.10625 31.98 -17 33 C-16.67 32.34 -16.34 31.68 -16 31 C-15.360625 30.71125 -14.72125 30.4225 -14.0625 30.125 C-11.44146891 28.69534668 -10.91839436 27.83171595 -10 25 C-9.9222654 22.66796188 -9.91032272 20.33160941 -10 18 C-10.66 18 -11.32 18 -12 18 Z M-3 20 C-3 20.33 -3 20.66 -3 21 C1.29 21.66 5.58 22.32 10 23 C9.67 22.01 9.34 21.02 9 20 C4.90946594 18.08109958 0.80732972 17.14450271 -3 20 Z M-18 20 C-17 22 -17 22 -17 22 Z M-19 22 C-18 24 -18 24 -18 24 Z M-7 25 C-7 25.66 -7 26.32 -7 27 C-2.97611556 28.06514588 -0.06406372 27.69175553 4 27 C6.375 27.4375 6.375 27.4375 8 28 C7.65213292 26.02463255 7.65213292 26.02463255 7 24 C2.65065264 21.82532632 -2.98810554 22.3254037 -7 25 Z M-20 25 C-20 26.98 -20 28.96 -20 31 C-19.67 31 -19.34 31 -19 31 C-19 29.02 -19 27.04 -19 25 C-19.33 25 -19.66 25 -20 25 Z M-6 28 C-5.34 28.66 -4.68 29.32 -4 30 C-4 29.34 -4 28.68 -4 28 C-4.66 28 -5.32 28 -6 28 Z M0 28 C-2.33454661 29.83358335 -2.33454661 29.83358335 -4 32 C-2.02 31.67 -0.04 31.34 2 31 C2 31.66 2 32.32 2 33 C1.01 33.33 0.02 33.66 -1 34 C0.32 34 1.64 34 3 34 C3.66 33.34 4.32 32.68 5 32 C5 31.01 5 30.02 5 29 C2.70705512 28.14025199 2.70705512 28.14025199 0 28 Z M-11 30 C-10.67 31.98 -10.34 33.96 -10 36 C-9.67 36 -9.34 36 -9 36 C-8.67 33.69 -8.34 31.38 -8 29 C-9.2236068 28.9254644 -9.2236068 28.9254644 -11 30 Z M-13 32 C-13 35 -13 35 -13 35 Z M-7 32 C-7.79953138 35.28696233 -8.09658936 36.71023192 -7 40 C-5.68 39.67 -4.36 39.34 -3 39 C-3.27034634 36.56282742 -3.27034634 36.56282742 -4 34 C-4.99 33.34 -5.98 32.68 -7 32 Z M-20 33 C-19 37 -19 37 -19 37 Z M5 34 C4.01 35.485 4.01 35.485 3 37 C5.475 37.495 5.475 37.495 8 38 C8 36.68 8 35.36 8 34 C7.01 34 6.02 34 5 34 Z M-16 35 C-14.87548273 37.9719385 -13.77706209 40.33440687 -12 43 C-11.34 43 -10.68 43 -10 43 C-10 43.66 -10 44.32 -10 45 C-12.31 43.35 -14.62 41.7 -17 40 C-15.84951796 44.60192814 -14.95802585 45.57121141 -11 48 C-8.24875747 47.86850174 -8.24875747 47.86850174 -6 47 C-6 47.66 -6 48.32 -6 49 C-6.99 49.495 -6.99 49.495 -8 50 C-4.52674819 51.1577506 -1.63932552 51.06866652 2 51 C1.34 50.67 0.68 50.34 0 50 C0 49.34 0 48.68 0 48 C-1.97946592 46.63636792 -3.9819245 45.30581356 -6 44 C-7 43 -8 42 -9 41 C-9.66 41 -10.32 41 -11 41 C-11 39.35 -11 37.7 -11 36 C-12.65 35.67 -14.3 35.34 -16 35 Z M-22 38 C-22.20086443 41.71599191 -22.1519437 42.77208445 -20 46 C-19.34 45.67 -18.68 45.34 -18 45 C-18.99 42.69 -19.98 40.38 -21 38 C-21.33 38 -21.66 38 -22 38 Z M1 38 C1.33 39.32 1.66 40.64 2 42 C3.32 41.67 4.64 41.34 6 41 C6 40.34 6 39.68 6 39 C4.35 38.67 2.7 38.34 1 38 Z M-5 41 C-3.94958421 43.86477034 -3.29875437 44.83913226 -0.5625 46.3125 C2.08954827 47.27640461 2.08954827 47.27640461 5 46 C0.36960931 42.66050716 0.36960931 42.66050716 -5 41 Z M6.875 48 C6.15054688 48.185625 5.42609375 48.37125 4.6796875 48.5625 C4.12539063 48.706875 3.57109375 48.85125 3 49 C5.68854587 51.26093748 5.68854587 51.26093748 8.04296875 50.7578125 C8.75066406 50.54898438 9.45835937 50.34015625 10.1875 50.125 C12.0746875 49.568125 12.0746875 49.568125 14 49 C13.67 48.34 13.34 47.68 13 47 C10.78970467 47 9.01332407 47.44817443 6.875 48 Z " fill="#B69673" transform="translate(262,215)"/>
<path d="M0 0 C2.57285724 2.172635 4.48996919 3.97993838 6 7 C5.94921875 9.0234375 5.94921875 9.0234375 5.6875 11.375 C5.56955078 12.53128906 5.56955078 12.53128906 5.44921875 13.7109375 C4.98084469 16.09760878 4.18250119 17.88597746 3 20 C3.66 20.33 4.32 20.66 5 21 C4.67 21.66 4.34 22.32 4 23 C2.68 23 1.36 23 0 23 C0.33 23.495 0.66 23.99 1 24.5 C2.46802416 28.17006041 2.25477988 31.0509118 2 35 C1.34 35.66 0.68 36.32 0 37 C0.01160156 36.37351563 0.02320313 35.74703125 0.03515625 35.1015625 C0.04417969 34.28429688 0.05320313 33.46703125 0.0625 32.625 C0.07410156 31.81289063 0.08570313 31.00078125 0.09765625 30.1640625 C0.14466334 27.95062858 0.14466334 27.95062858 -1 26 C-1.66 26 -2.32 26 -3 26 C-3.16435547 26.93972656 -3.16435547 26.93972656 -3.33203125 27.8984375 C-3.56986328 29.12433594 -3.56986328 29.12433594 -3.8125 30.375 C-3.96332031 31.18710937 -4.11414063 31.99921875 -4.26953125 32.8359375 C-5 35 -5 35 -8 37 C-9.65549531 37.38499891 -11.3222433 37.72793135 -13 38 C-13.66 39.98 -14.32 41.96 -15 44 C-21.77825456 39.78241939 -21.77825456 39.78241939 -24 36 C-24.00390625 33.59765625 -24.00390625 33.59765625 -23.5625 31.0625 C-22.85026756 26.91101905 -23.38617977 24.85364191 -25 21 C-27.24380165 8.88347107 -27.24380165 8.88347107 -23.8125 3.6875 C-19.82612905 1.26552048 -15.16137359 1.29915231 -10.609375 1.140625 C-6.70906334 0.93042856 -4.12121832 -0.48484921 0 0 Z " fill="#F89C8A" transform="translate(216,25)"/>
<path d="M0 0 C2.19140625 0.31640625 2.19140625 0.31640625 4 1 C3.40574219 1.79019531 2.81148437 2.58039063 2.19921875 3.39453125 C-16.01072812 28.01271417 -34.39557187 59.26355809 -31 91 C-28.68537229 102.59929254 -22.4863267 111.10085331 -13 118 C-5.50639459 122.68538054 3.43175665 123.61225997 12 125 C12 125.33 12 125.66 12 126 C-0.33024855 127.06704074 -14.26470886 123.85104124 -24 116 C-32.12694648 108.49602502 -35.60183957 100.96101492 -37.4296875 90.2265625 C-38.21045653 87.17835463 -39.94554699 85.32838008 -42 83 C-42 81.68 -42 80.36 -42 79 C-40.68 79.33 -39.36 79.66 -38 80 C-37.97421875 79.23558594 -37.9484375 78.47117187 -37.921875 77.68359375 C-36.80136698 56.52127176 -27.8747035 33.36627076 -14.25 16.8828125 C-12.67661991 14.51290874 -12.6883586 13.06387179 -12.8125 10.25 C-12.83957031 9.45078125 -12.86664063 8.6515625 -12.89453125 7.828125 C-12.94673828 6.92320313 -12.94673828 6.92320313 -13 6 C-10.66666667 6 -8.33333333 6 -6 6 C-4.38183119 4.5112847 -3.02124806 2.88898772 -1.59765625 1.21484375 C-1.07042969 0.81394531 -0.54320312 0.41304688 0 0 Z " fill="#4C8A4F" transform="translate(59,90)"/>
<path d="M0 0 C10.01227218 1.44601372 18.66899968 8.4413152 25 16 C25.41604492 16.49435547 25.83208984 16.98871094 26.26074219 17.49804688 C32.42491712 24.96251213 37.20240056 32.76624368 41.25 41.5625 C41.64501709 42.4071582 42.04003418 43.25181641 42.44702148 44.12207031 C44.44478058 48.69176737 45.86089966 52.08929256 44 57 C42.68 57.99 41.36 58.98 40 60 C39.505 54.06 39.505 54.06 39 48 C35.69628672 46.79132441 33.2240675 45.99578721 29.67578125 46.0625 C24.69177724 44.62185272 23.77776594 42.29426247 21.31982422 37.89990234 C20.80178223 36.92230957 20.28374023 35.9447168 19.75 34.9375 C18.62711991 32.92574135 17.49945922 30.91664406 16.3671875 28.91015625 C15.80741211 27.91129395 15.24763672 26.91243164 14.67089844 25.88330078 C12.2692176 21.73896258 9.62240822 17.79607192 6.875 13.875 C6.42608398 13.23167725 5.97716797 12.58835449 5.51464844 11.92553711 C3.7873512 9.47079984 2.05429794 7.06520297 0.1328125 4.7578125 C-0.24101562 4.17773438 -0.61484375 3.59765625 -1 3 C-0.67 2.01 -0.34 1.02 0 0 Z " fill="#FECD55" transform="translate(222,69)"/>
<path d="M0 0 C2.85589153 1.42794577 5.40759181 3.1402289 8 5 C8 5.66 8 6.32 8 7 C8.76699219 7.06058594 9.53398437 7.12117187 10.32421875 7.18359375 C13 8 13 8 14.58203125 10.28515625 C14.98808594 11.20167969 15.39414062 12.11820313 15.8125 13.0625 C16.23144531 13.98160156 16.65039062 14.90070313 17.08203125 15.84765625 C17.38496094 16.55792969 17.68789063 17.26820313 18 18 C17.01 18 16.02 18 15 18 C14.505 19.485 14.505 19.485 14 21 C13.34 21 12.68 21 12 21 C11.31292445 23.49064888 11 25.37886292 11 28 C10.360625 28.268125 9.72125 28.53625 9.0625 28.8125 C6.66868314 29.88667752 6.66868314 29.88667752 6 33 C2.29345091 34.23551636 -1.14340043 34.43945535 -5 34 C-7.6875 32.625 -7.6875 32.625 -10 31 C-11.65369357 30.30177383 -13.31727014 29.62501395 -15 29 C-14.01 28.67 -13.02 28.34 -12 28 C-12.78375 27.154375 -13.5675 26.30875 -14.375 25.4375 C-17.08471109 22.18122786 -18.22185166 19.20200105 -19 15 C-18.625 12.5625 -18.625 12.5625 -18 11 C-18 11.66 -18 12.32 -18 13 C-17.34 13 -16.68 13 -16 13 C-15.85304688 11.95199219 -15.85304688 11.95199219 -15.703125 10.8828125 C-15.55359375 9.97273437 -15.4040625 9.06265625 -15.25 8.125 C-15.11078125 7.22007812 -14.9715625 6.31515625 -14.828125 5.3828125 C-14 3 -14 3 -10 1 C-11.32 3.64 -12.64 6.28 -14 9 C-13.13375 8.0409375 -13.13375 8.0409375 -12.25 7.0625 C-9.94633418 4.95080634 -8.99287412 4.46763658 -6 4 C-4.88625 3.7215625 -4.88625 3.7215625 -3.75 3.4375 C-3.1725 3.293125 -2.595 3.14875 -2 3 C-2 2.34 -2 1.68 -2 1 C-1.34 0.67 -0.68 0.34 0 0 Z M-5 7 C-2.45297384 8.27351308 -1.5717055 7.80191925 1.125 7.0625 C1.84945313 6.86785156 2.57390625 6.67320312 3.3203125 6.47265625 C4.15175781 6.23869141 4.15175781 6.23869141 5 6 C3.17796419 3.77033253 3.17796419 3.77033253 0.5625 3.6875 C-2.39279457 4.04790178 -3.18887927 4.71226855 -5 7 Z M-2 9 C-2 9.66 -2 10.32 -2 11 C1.3 11 4.6 11 8 11 C7.67 10.01 7.34 9.02 7 8 C5.68 8.33 4.36 8.66 3 9 C3 8.34 3 7.68 3 7 C0.67642489 6.81509993 0.67642489 6.81509993 -2 9 Z M-10 9 C-10.66 10.65 -11.32 12.3 -12 14 C-11.01 13.67 -10.02 13.34 -9 13 C-8.26676204 10.98491642 -8.26676204 10.98491642 -8 9 C-8.66 9 -9.32 9 -10 9 Z M-6 9 C-6.33 9.66 -6.66 10.32 -7 11 C-6.34 11 -5.68 11 -5 11 C-5.33 10.34 -5.66 9.68 -6 9 Z M12 11 C12 13.31 12 15.62 12 18 C12.99 18.495 12.99 18.495 14 19 C14.16681109 16.08347826 14.16681109 16.08347826 14 13 C13.34 12.34 12.68 11.68 12 11 Z M-5 12 C-5 12.66 -5 13.32 -5 14 C-4.34 14 -3.68 14 -3 14 C-3 13.34 -3 12.68 -3 12 C-3.66 12 -4.32 12 -5 12 Z M-1 13 C-0.21625 13.061875 0.5675 13.12375 1.375 13.1875 C2.24125 13.455625 3.1075 13.72375 4 14 C5.3125 16.5625 5.3125 16.5625 6 19 C6.66 18.67 7.32 18.34 8 18 C7.67 16.02 7.34 14.04 7 12 C2.82189931 10.81068813 2.82189931 10.81068813 -1 13 Z M-15 13 C-15.77426109 15.80764728 -15.77426109 15.80764728 -16 19 C-14.68864588 21.36290685 -14.68864588 21.36290685 -13 23 C-13 20.03 -13 17.06 -13 14 C-13.66 13.67 -14.32 13.34 -15 13 Z M-7 13 C-6 15 -6 15 -6 15 Z M-4.25 16 C-4.8275 16.66 -5.405 17.32 -6 18 C-2.5647952 20.29013653 -1.014669 20.17842973 3 20 C3.6814823 18.10820797 3.6814823 18.10820797 4 16 C3.34 15.34 2.68 14.68 2 14 C-2.00346023 13.55709077 -2.00346023 13.55709077 -4.25 16 Z M-9 15 C-8 17 -8 17 -8 17 Z M-10 19 C-9.34 20.32 -8.68 21.64 -8 23 C-7.01 22.67 -6.02 22.34 -5 22 C-6.37485532 20.45833358 -6.37485532 20.45833358 -8 19 C-8.66 19 -9.32 19 -10 19 Z M7 20 C6.731875 20.639375 6.46375 21.27875 6.1875 21.9375 C5 24 5 24 2 25 C3.98 25.99 3.98 25.99 6 27 C6.99 26.34 7.98 25.68 9 25 C9.25030977 22.41619823 9.25030977 22.41619823 9 20 C8.34 20 7.68 20 7 20 Z M-2 22 C-1.67 22.66 -1.34 23.32 -1 24 C-0.34 24 0.32 24 1 24 C1 23.34 1 22.68 1 22 C0.01 22 -0.98 22 -2 22 Z M-11 23 C-10 25 -10 25 -10 25 Z M-6 26 C-5.67 26.99 -5.34 27.98 -5 29 C-2.98491642 29.73323796 -2.98491642 29.73323796 -1 30 C-1 29.34 -1 28.68 -1 28 C-0.01 27.67 0.98 27.34 2 27 C-0.70879335 25.64560332 -3.00933268 25.93498549 -6 26 Z M-9 27 C-8 29 -8 29 -8 29 Z " fill="#B69673" transform="translate(330,231)"/>
<path d="M0 0 C9.21484788 -0.43880228 16.63165481 1.13881632 24 7 C29.10650617 12.34401809 32.11221428 17.47667076 32.375 24.9375 C32.04149413 33.42907264 29.05067113 38.83018835 23.2578125 45.0078125 C19.9283626 47.94556241 16.35906243 50.03314029 12 51 C9.734375 50.5859375 9.734375 50.5859375 8 50 C9.85079003 47.94356663 11.43204192 46.75580239 13.875 45.375 C18.82285287 41.61463182 21.83458601 36.12436945 23 30 C23.91502269 21.31478467 21.88534828 14.61283577 16.6875 7.625 C11.82739877 2.87792438 6.62385335 1.6759034 0 1 C0 0.67 0 0.34 0 0 Z " fill="#4C8B4E" transform="translate(172,153)"/>
<path d="M0 0 C6.7186905 1.99613268 12.80734808 4.7291421 19 8 C16.51934513 10.58401549 13.91533765 12.93531058 11.1875 15.25 C5.0257265 20.62150887 0.06549315 26.3448717 -3.859375 33.53125 C-4.42398438 34.25828125 -4.42398438 34.25828125 -5 35 C-5.99 35 -6.98 35 -8 35 C-7.30811928 28.54730196 -5.98691023 22.45644326 -4.37304688 16.1796875 C-3.34411254 12.01872227 -2.78850322 8.32545023 -3 4 C-2.01 4 -1.02 4 0 4 C0 2.68 0 1.36 0 0 Z " fill="#58A15D" transform="translate(103,123)"/>
<path d="M0 0 C2.57285724 2.172635 4.48996919 3.97993838 6 7 C6.01953125 9.09375 6.01953125 9.09375 5.8125 11.5 C5.75707031 12.2940625 5.70164063 13.088125 5.64453125 13.90625 C5 16 5 16 2.94921875 17.28125 C2.30597656 17.5184375 1.66273438 17.755625 1 18 C0.649375 16.865625 0.29875 15.73125 -0.0625 14.5625 C-0.82126499 12.62532458 -0.82126499 12.62532458 -2 11 C-5.35017285 9.58090318 -5.35017285 9.58090318 -9 10 C-12.51662697 12.10997618 -14.49939297 14.18027302 -16 18 C-16.556875 17.67 -17.11375 17.34 -17.6875 17 C-20.30284522 15.8690399 -22.1806646 15.84337026 -25 16 C-26.58939347 12.82121306 -26.41576711 10.5043228 -26 7 C-23.16257947 3.3744071 -21.5441136 2.25333114 -17 1.5078125 C-14.87296028 1.33908098 -12.74180394 1.21488869 -10.609375 1.140625 C-6.70906334 0.93042856 -4.12121832 -0.48484921 0 0 Z " fill="#61524A" transform="translate(216,25)"/>
<path d="M0 0 C-1.36983503 3.16115776 -1.9890638 3.9927092 -5 6 C-6.539444 11.5491586 -6.22054424 17.52821936 -6.25 23.25 C-6.270625 24.23613281 -6.29125 25.22226563 -6.3125 26.23828125 C-6.34414169 32.24229201 -5.63817168 37.25781399 -3.64746094 42.93261719 C-3 45 -3 45 -3 48 C-4.28188218 47.31186372 -5.55012793 46.59830508 -6.8125 45.875 C-7.52019531 45.48054688 -8.22789063 45.08609375 -8.95703125 44.6796875 C-12.73221105 41.57581119 -13.85634764 38.10211972 -14.4765625 33.34375 C-14.52554688 32.0753125 -14.57453125 30.806875 -14.625 29.5 C-14.8209036 24.91025853 -15.14945101 20.51767003 -16 16 C-15.01 15.67 -14.02 15.34 -13 15 C-12.87882812 14.22914063 -12.75765625 13.45828125 -12.6328125 12.6640625 C-12.46523437 11.66117188 -12.29765625 10.65828125 -12.125 9.625 C-11.96257812 8.62726563 -11.80015625 7.62953125 -11.6328125 6.6015625 C-11 4 -11 4 -9 2 C-2.77777778 0 -2.77777778 0 0 0 Z " fill="#4D884F" transform="translate(83,212)"/>
<path d="M0 0 C1.859375 0.21484375 1.859375 0.21484375 4 1 C5.265625 3.06640625 5.265625 3.06640625 6.25 5.5625 C6.58515625 6.38878906 6.9203125 7.21507812 7.265625 8.06640625 C7.50796875 8.70449219 7.7503125 9.34257812 8 10 C8.66 9.34 9.32 8.68 10 8 C13.2660467 21.41298791 13.2660467 21.41298791 13 26 C11.0625 28.5625 11.0625 28.5625 9 30 C4.55711819 28.60366572 2.13475236 26.39598172 -1 23 C-1.33 22.67 -1.66 22.34 -2 22 C-2.12602054 19.89868079 -2.1757922 17.79256212 -2.1875 15.6875 C-2.20167969 14.53636719 -2.21585937 13.38523438 -2.23046875 12.19921875 C-2.01267006 9.17587763 -1.5831811 7.53434129 0 5 C-0.66 4.67 -1.32 4.34 -2 4 C-1.34 2.68 -0.68 1.36 0 0 Z " fill="#99996E" transform="translate(275,230)"/>
<path d="M0 0 C1.75 0.078125 1.75 0.078125 4 1 C5.5405766 3.25068612 6.78029714 5.3333897 8 7.75 C8.34740234 8.43537842 8.69480469 9.12075684 9.05273438 9.8269043 C10.06351212 11.87240176 11.03807851 13.93114633 12 16 C12.4640625 16.98097656 12.928125 17.96195313 13.40625 18.97265625 C17.57975086 29.80885313 18.67129435 46.98611694 15 58 C20.94 58.99 26.88 59.98 33 61 C33 61.33 33 61.66 33 62 C30.47886908 62.05447822 27.9589415 62.09389852 25.4375 62.125 C24.73302734 62.14175781 24.02855469 62.15851563 23.30273438 62.17578125 C18.48108178 62.22022044 14.57702562 61.52768004 10 60 C10.0721875 59.34257812 10.144375 58.68515625 10.21875 58.0078125 C12.32938081 36.37384674 10.65730465 19.15919938 0 0 Z " fill="#4C894F" transform="translate(243,150)"/>
<path d="M0 0 C-6.9027324 32.38409563 -6.9027324 32.38409563 -13 38 C-15.69106907 39.34553453 -17.87165422 39.20594114 -20.875 39.25 C-22.44894531 39.28867188 -22.44894531 39.28867188 -24.0546875 39.328125 C-27.30556586 38.96595818 -28.62350767 38.18132146 -31 36 C-30.34773438 36.03480469 -29.69546875 36.06960937 -29.0234375 36.10546875 C-23.59261899 36.27367994 -19.59891087 36.25288817 -15 33 C-11.8087834 29.25857364 -11.5674783 25.62899672 -11.30859375 20.890625 C-11.20675781 20.26671875 -11.10492188 19.6428125 -11 19 C-10.34 18.67 -9.68 18.34 -9 18 C-8.07598728 14.86509046 -7.31513416 11.73118415 -6.58789062 8.546875 C-4.50105636 0 -4.50105636 0 0 0 Z " fill="#4D8B50" transform="translate(306,135)"/>
<path d="M0 0 C12.34877064 -0.75914574 21.94789032 0.42421507 31.75 8.75 C33.671875 10.546875 33.671875 10.546875 35 12 C35 12.33 35 12.66 35 13 C29.06 13 23.12 13 17 13 C19.49505962 10.50494038 20.67328888 10.64051624 24.125 10.375 C25.03507812 10.30023438 25.94515625 10.22546875 26.8828125 10.1484375 C27.58148438 10.09945312 28.28015625 10.05046875 29 10 C21.15345371 5.10042847 14.1653956 4.14527284 5 4 C4.54625 4.825 4.0925 5.65 3.625 6.5 C3.08875 7.325 2.5525 8.15 2 9 C1.34 9 0.68 9 0 9 C-1.125 2.25 -1.125 2.25 0 0 Z " fill="#EF8669" transform="translate(106,89)"/>
<path d="M0 0 C0 0.66 0 1.32 0 2 C-1.10730469 2.48082031 -2.21460938 2.96164063 -3.35546875 3.45703125 C-5.62466409 4.75363267 -6.77588307 5.53547753 -7.92041016 7.90771484 C-8.51121441 10.16171181 -8.94595 12.38648717 -9.3125 14.6875 C-9.81935239 17.4786283 -10.37889466 20.23004678 -11 23 C-11.66 23.33 -12.32 23.66 -13 24 C-14.5625 22.5 -14.5625 22.5 -16 20 C-15.90144233 17.09254863 -15.61864142 14.79861593 -15 12 C-14.85820312 11.20335937 -14.71640625 10.40671875 -14.5703125 9.5859375 C-13.97357082 7.07635263 -13.38384293 5.18221385 -12 3 C-8.17784079 0.74663748 -4.40025873 0 0 0 Z " fill="#4F8A50" transform="translate(292,209)"/>
<path d="M0 0 C3 1 3 1 5 4 C5.4140625 7.13671875 5.4140625 7.13671875 5.625 10.6875 C5.69976562 11.86699219 5.77453125 13.04648438 5.8515625 14.26171875 C5.90054687 15.16535156 5.94953125 16.06898438 6 17 C5.01 17.66 4.02 18.32 3 19 C0.32927285 16.19758019 -0.92307315 14.59565379 -1.42578125 10.703125 C-1.38839844 9.56359375 -1.35101563 8.4240625 -1.3125 7.25 C-1.28800781 6.10015625 -1.26351563 4.9503125 -1.23828125 3.765625 C-1 1 -1 1 0 0 Z " fill="#538951" transform="translate(274,238)"/>
<path d="M0 0 C1.82421875 0.140625 1.82421875 0.140625 4 1 C5.51953125 3.546875 5.51953125 3.546875 6.8125 6.75 C7.25207031 7.79671875 7.69164062 8.8434375 8.14453125 9.921875 C9.06441863 13.23178941 9.12276018 14.78603246 8 18 C6.4375 20.3125 6.4375 20.3125 5 22 C4.85304688 21.00419922 4.85304688 21.00419922 4.703125 19.98828125 C3.79525337 14.62714274 2.97963587 10.97963587 -1 7 C-0.67 6.34 -0.34 5.68 0 5 C-0.66 4.67 -1.32 4.34 -2 4 C-1.34 2.68 -0.68 1.36 0 0 Z " fill="#839967" transform="translate(275,230)"/>
<path d="M0 0 C1.32 0.66 2.64 1.32 4 2 C3.55396127 7.05510556 1.35299176 9.40166738 -2 13 C-4.69106907 14.34553453 -6.87165422 14.20594114 -9.875 14.25 C-11.44894531 14.28867188 -11.44894531 14.28867188 -13.0546875 14.328125 C-16.30556586 13.96595818 -17.62350767 13.18132146 -20 11 C-19.34773438 11.03480469 -18.69546875 11.06960937 -18.0234375 11.10546875 C-12.59261899 11.27367994 -8.59891087 11.25288817 -4 8 C-2.06721928 5.33409556 -1.04078607 3.12235821 0 0 Z " fill="#49904C" transform="translate(295,160)"/>
<path d="M0 0 C9.57 0 19.14 0 29 0 C29 0.33 29 0.66 29 1 C5.79349046 4.89674523 5.79349046 4.89674523 0 2 C0 1.34 0 0.68 0 0 Z " fill="#4F9053" transform="translate(164,260)"/>
<path d="M0 0 C0.33 0 0.66 0 1 0 C1.83784949 9.21634444 -1.21417631 17.33409845 -4 26 C-4.99 26 -5.98 26 -7 26 C-4.25961538 16.59134615 -4.25961538 16.59134615 -2.875 13.4375 C-1.75243108 10.31034373 -1.51782008 7.28781526 -1.24609375 3.98828125 C-1 2 -1 2 0 0 Z " fill="#F6BD3C" transform="translate(164,79)"/>
<path d="M0 0 C2 2 2 2 2.265625 4.05859375 C2.26046875 4.84363281 2.2553125 5.62867188 2.25 6.4375 C2.25515625 7.21996094 2.2603125 8.00242188 2.265625 8.80859375 C2 11 2 11 0 14 C-1.32 13.67 -2.64 13.34 -4 13 C-3.27991594 8.39146203 -1.68704061 4.32762591 0 0 Z " fill="#5AA15E" transform="translate(284,246)"/>
<path d="M0 0 C1.65 0.99 3.3 1.98 5 3 C4.75 5.8125 4.75 5.8125 4 9 C2.68 9.99 1.36 10.98 0 12 C0 8.04 0 4.08 0 0 Z " fill="#DEA32F" transform="translate(262,117)"/>
<path d="M0 0 C2.31 0 4.62 0 7 0 C4.525 4.455 4.525 4.455 2 9 C1.34 9 0.68 9 0 9 C-1.125 2.25 -1.125 2.25 0 0 Z " fill="#E5A22F" transform="translate(106,89)"/>
<path d="M0 0 C1.90318884 2.85478326 2.4619099 4.41941308 3.125 7.6875 C3.29257813 8.49574219 3.46015625 9.30398437 3.6328125 10.13671875 C3.75398437 10.75160156 3.87515625 11.36648437 4 12 C2.02 11.34 0.04 10.68 -2 10 C-1.34 7.36 -0.68 4.72 0 2 C-0.99 1.67 -1.98 1.34 -3 1 C-2.01 0.67 -1.02 0.34 0 0 Z " fill="#FFC65F" transform="translate(209,110)"/>
<path d="M0 0 C1.32 0.66 2.64 1.32 4 2 C4 3.98 4 5.96 4 8 C2.68 8 1.36 8 0 8 C-0.38063221 5.6739143 -0.71269945 3.33944736 -1 1 C-0.67 0.67 -0.34 0.34 0 0 Z " fill="#62534B" transform="translate(47,95)"/>
<path d="M0 0 C1.875 0.1875 1.875 0.1875 4 1 C5.52164099 3.89111788 6 5.71823412 6 9 C2.83884224 7.63016497 2.0072908 7.0109362 0 4 C0 2.68 0 1.36 0 0 Z " fill="#5F5449" transform="translate(17,169)"/>
<path d="M0 0 C1.9375 0.6875 1.9375 0.6875 4 2 C4.75 4.625 4.75 4.625 5 7 C3.68 7 2.36 7 1 7 C0 6 0 6 -0.0625 2.9375 C-0.041875 1.968125 -0.02125 0.99875 0 0 Z " fill="#5E5549" transform="translate(295,154)"/>
<path d="M0 0 C0 0.99 0 1.98 0 3 C-0.99 3 -1.98 3 -3 3 C-2.34 4.32 -1.68 5.64 -1 7 C-1.99 7.495 -1.99 7.495 -3 8 C-3.99 7.67 -4.98 7.34 -6 7 C-6 6.34 -6 5.68 -6 5 C-6.66 4.67 -7.32 4.34 -8 4 C-2.25 0 -2.25 0 0 0 Z M-5 4 C-4 6 -4 6 -4 6 Z " fill="#C2A562" transform="translate(328,240)"/>
<path d="M0 0 C2.875 -0.125 2.875 -0.125 6 0 C8 2 8 2 8 5 C4.62537285 4.45276317 2.91765 3.9451 0 2 C0 1.34 0 0.68 0 0 Z " fill="#5E5D4C" transform="translate(95,223)"/>
<path d="M0 0 C0.99 0.33 1.98 0.66 3 1 C4.39439664 1.06665376 5.79169875 1.08538199 7.1875 1.0625 C8.445625 1.041875 9.70375 1.02125 11 1 C10.34 2.32 9.68 3.64 9 5 C8.236875 4.95875 7.47375 4.9175 6.6875 4.875 C3.77281584 4.77919176 3.77281584 4.77919176 1 7 C1.20625 6.401875 1.4125 5.80375 1.625 5.1875 C2.30671915 2.71549154 2.30671915 2.71549154 0 0 Z " fill="#F59079" transform="translate(200,57)"/>
<path d="M0 0 C1.65 0.33 3.3 0.66 5 1 C5 2.32 5 3.64 5 5 C2.03 4.505 2.03 4.505 -1 4 C-0.67 2.68 -0.34 1.36 0 0 Z " fill="#5F5449" transform="translate(224,244)"/>
<path d="M0 0 C0.99 0 1.98 0 3 0 C2.67 1.98 2.34 3.96 2 6 C1.01 6.33 0.02 6.66 -1 7 C-1.625 4.625 -1.625 4.625 -2 2 C-1.34 1.34 -0.68 0.68 0 0 Z " fill="#60574B" transform="translate(155,182)"/>
<path d="M0 0 C0.99 0.66 1.98 1.32 3 2 C1.95125002 4.62187494 1.35068687 5.79371361 -1.125 7.25 C-1.74375 7.4975 -2.3625 7.745 -3 8 C-2.25 2.25 -2.25 2.25 0 0 Z " fill="#FEA18F" transform="translate(232,52)"/>
<path d="M0 0 C0.66 0 1.32 0 2 0 C2 0.66 2 1.32 2 2 C2.66 2 3.32 2 4 2 C4 3.32 4 4.64 4 6 C2.35 5.67 0.7 5.34 -1 5 C-1.33 4.01 -1.66 3.02 -2 2 C-1.34 2 -0.68 2 0 2 C0 1.34 0 0.68 0 0 Z " fill="#C0A264" transform="translate(329,259)"/>
<path d="M0 0 C0.66 0 1.32 0 2 0 C4.09230769 4.43076923 4.09230769 4.43076923 3.625 7.3125 C3.41875 7.869375 3.2125 8.42625 3 9 C0.9375 7.3125 0.9375 7.3125 -1 5 C-0.75 2.25 -0.75 2.25 0 0 Z " fill="#548B52" transform="translate(276,232)"/>
<path d="M0 0 C1.32 0 2.64 0 4 0 C3.67 1.32 3.34 2.64 3 4 C1.35 4.33 -0.3 4.66 -2 5 C-1.125 1.125 -1.125 1.125 0 0 Z " fill="#5B4F46" transform="translate(309,231)"/>
<path d="M0 0 C1.32 0.33 2.64 0.66 4 1 C4 2.65 4 4.3 4 6 C3.01 6 2.02 6 1 6 C0.67 4.02 0.34 2.04 0 0 Z " fill="#605348" transform="translate(67,228)"/>
<path d="M0 0 C2.16874252 0.50603992 3.99967627 0.99983813 6 2 C5.34 3.32 4.68 4.64 4 6 C3.34 6 2.68 6 2 6 C1.34 4.02 0.68 2.04 0 0 Z " fill="#5E584A" transform="translate(92,157)"/>
<path d="M0 0 C1.32 0 2.64 0 4 0 C2.95125002 2.62187494 2.35068687 3.79371361 -0.125 5.25 C-0.74375 5.4975 -1.3625 5.745 -2 6 C-1.125 1.125 -1.125 1.125 0 0 Z " fill="#5F554A" transform="translate(104,246)"/>
<path d="M0 0 C0.99 0 1.98 0 3 0 C1.75023244 3.65316671 1.32901247 4.78065836 -2 7 C-2.125 4.625 -2.125 4.625 -2 2 C-1.34 1.34 -0.68 0.68 0 0 Z " fill="#625248" transform="translate(327,150)"/>
<path d="M0 0 C1.98 0.99 1.98 0.99 4 2 C4 3.32 4 4.64 4 6 C3.01 6 2.02 6 1 6 C0.67 4.02 0.34 2.04 0 0 Z " fill="#5E5D4C" transform="translate(148,228)"/>
<path d="M0 0 C1.32 0 2.64 0 4 0 C3.67 1.32 3.34 2.64 3 4 C1.68 4.33 0.36 4.66 -1 5 C-0.67 3.35 -0.34 1.7 0 0 Z " fill="#5F534A" transform="translate(282,119)"/>
<path d="M0 0 C1.65 0 3.3 0 5 0 C2.25 4.875 2.25 4.875 0 6 C0 4.02 0 2.04 0 0 Z " fill="#5B4E46" transform="translate(85,97)"/>
<path d="M0 0 C1.2065625 0.0309375 1.2065625 0.0309375 2.4375 0.0625 C0.7875 1.7125 -0.8625 3.3625 -2.5625 5.0625 C-3.125 3.125 -3.125 3.125 -3.5625 1.0625 C-2.5625 0.0625 -2.5625 0.0625 0 0 Z " fill="#5F574B" transform="translate(247.5625,183.9375)"/>
<path d="M0 0 C1.9375 0.3125 1.9375 0.3125 4 1 C4.33 1.99 4.66 2.98 5 4 C3.02 4 1.04 4 -1 4 C-0.67 2.68 -0.34 1.36 0 0 Z " fill="#5F584B" transform="translate(302,176)"/>
<path d="M0 0 C0.99 0 1.98 0 3 0 C3 0.99 3 1.98 3 3 C0.5 4.6875 0.5 4.6875 -2 6 C-1.125 1.125 -1.125 1.125 0 0 Z " fill="#605549" transform="translate(68,149)"/>
<path d="M0 0 C0.99 0 1.98 0 3 0 C2.34 1.65 1.68 3.3 1 5 C0.01 4.67 -0.98 4.34 -2 4 C-1.34 2.68 -0.68 1.36 0 0 Z " fill="#5E5E4D" transform="translate(62,195)"/>
<path d="M0 0 C1.98 0.99 1.98 0.99 4 2 C4 2.99 4 3.98 4 5 C2.68 5 1.36 5 0 5 C0 3.35 0 1.7 0 0 Z " fill="#5E5E4D" transform="translate(51,131)"/>
</svg>
